<?xml version="1.0" encoding="UTF-8"?>
<svg width="25px" height="25px" viewBox="0 0 25 25" version="1.1" xmlns="http://www.w3.org/2000/svg" xmlns:xlink="http://www.w3.org/1999/xlink">
    <title>atom/icon/download</title>
    <g id="Symbols" stroke="none" stroke-width="1" fill="none" fill-rule="evenodd">
        <g id="atom/icon/download" fill="#000000">
            <path d="M11.4375,3 L14.5625,3 C15.0820312,3 15.5,3.41796875 15.5,3.9375 L15.5,10.5 L18.9257812,10.5 C19.6210937,10.5 19.96875,11.3398438 19.4765625,11.8320312 L13.5351562,17.7773438 C13.2421875,18.0703125 12.7617187,18.0703125 12.46875,17.7773438 L6.51953125,11.8320312 C6.02734375,11.3398438 6.375,10.5 7.0703125,10.5 L10.5,10.5 L10.5,3.9375 C10.5,3.41796875 10.9179687,3 11.4375,3 Z M23,17.6875 L23,22.0625 C23,22.5820312 22.5820312,23 22.0625,23 L3.9375,23 C3.41796875,23 3,22.5820312 3,22.0625 L3,17.6875 C3,17.1679688 3.41796875,16.75 3.9375,16.75 L9.66796875,16.75 L11.5820312,18.6640625 C12.3671875,19.4492188 13.6328125,19.4492188 14.4179687,18.6640625 L16.3320312,16.75 L22.0625,16.75 C22.5820312,16.75 23,17.1679688 23,17.6875 Z M18.15625,21.125 C18.15625,20.6953125 17.8046875,20.34375 17.375,20.34375 C16.9453125,20.34375 16.59375,20.6953125 16.59375,21.125 C16.59375,21.5546875 16.9453125,21.90625 17.375,21.90625 C17.8046875,21.90625 18.15625,21.5546875 18.15625,21.125 Z M20.65625,21.125 C20.65625,20.6953125 20.3046875,20.34375 19.875,20.34375 C19.4453125,20.34375 19.09375,20.6953125 19.09375,21.125 C19.09375,21.5546875 19.4453125,21.90625 19.875,21.90625 C20.3046875,21.90625 20.65625,21.5546875 20.65625,21.125 Z" id="icon/download"></path>
        </g>
    </g>
</svg>