<?xml version="1.0" encoding="UTF-8"?>
<svg width="25px" height="25px" viewBox="0 0 25 25" version="1.1" xmlns="http://www.w3.org/2000/svg" xmlns:xlink="http://www.w3.org/1999/xlink">
    <title>atom/icon/skype</title>
    <g id="Symbols" stroke="none" stroke-width="1" fill="none" fill-rule="evenodd">
        <g id="atom/icon/skype" fill="#000000">
            <path d="M21.9598214,14.9553571 C22.0892857,14.3303571 22.1696429,13.6651786 22.1696429,13 C22.1696429,7.93303571 18.0669643,3.83482143 13.0044643,3.83482143 C12.3392857,3.83482143 11.6785714,3.91071429 11.0491071,4.04464286 C10.2008929,3.38839286 9.14732143,3 8,3 C5.24107143,3 3,5.24107143 3,8 C3,9.14732143 3.38839286,10.2008929 4.04017857,11.0446429 C3.91071429,11.6696429 3.83035714,12.3348214 3.83035714,13 C3.83035714,18.0669643 7.93303571,22.1651786 12.9955357,22.1651786 C13.6607143,22.1651786 14.3214286,22.0892857 14.9508929,21.9553571 C15.7991071,22.6071429 16.8526786,22.9955357 17.9955357,22.9955357 C20.7544643,22.9955357 22.9955738,20.7544643 22.9955738,17.9955357 C23,16.8526786 22.6116071,15.7991071 21.9598214,14.9553571 L21.9598214,14.9553571 Z M13.2723214,19.0401786 C10.34375,19.0401786 7.89285714,17.7366071 7.89285714,16.1383929 C7.89285714,15.4241071 8.29464286,14.7723214 9.20982143,14.7723214 C10.6026786,14.7723214 10.7321429,16.7767857 13.1428571,16.7767857 C14.2901786,16.7767857 15.03125,16.2678571 15.03125,15.6026786 C15.03125,14.7678571 14.3169643,14.6383929 13.15625,14.3526786 C10.3660714,13.6651786 7.89732143,13.3705357 7.89732143,10.4598214 C7.89732143,7.81696429 10.5133929,6.83928571 12.7678571,6.83928571 C15.2276786,6.83928571 17.7142857,7.81696429 17.7142857,9.3125 C17.7142857,10.0669643 17.2053571,10.7321429 16.3616071,10.7321429 C15.0982143,10.7321429 15.0580357,9.23660714 13.0133929,9.23660714 C11.8660714,9.23660714 11.1383929,9.54910714 11.1383929,10.2410714 C11.1383929,11.125 12.0669643,11.2142857 14.2232143,11.7142857 C16.0714286,12.1294643 18.2723214,12.9107143 18.2723214,15.1785714 C18.2723214,17.8169643 15.7232143,19.0401786 13.2723214,19.0401786 L13.2723214,19.0401786 Z" id="icon/skype"></path>
        </g>
    </g>
</svg>