<?xml version="1.0" encoding="UTF-8"?>
<svg width="200px" height="50px" viewBox="0 0 200 50" version="1.1" xmlns="http://www.w3.org/2000/svg" xmlns:xlink="http://www.w3.org/1999/xlink">
    <title>atom/button/icon/xl</title>
    <defs>
        <rect id="path-1" x="0" y="0" width="200" height="50" rx="5"></rect>
    </defs>
    <g id="Symbols" stroke="none" stroke-width="1" fill="none" fill-rule="evenodd">
        <g id="atom/button/icon/xl">
            <mask id="mask-2" fill="white">
                <use xlink:href="#path-1"></use>
            </mask>
            <use id="button/mask" fill="#000000" xlink:href="#path-1"></use>
            <g id="Group" mask="url(#mask-2)" fill="#FFFFFF" fill-opacity="0.2">
                <g id="base/state">
                    <rect id="state/hover" x="0" y="0" width="200" height="50"></rect>
                </g>
            </g>
            <g id="button/content" mask="url(#mask-2)">
                <g transform="translate(40.000000, 13.000000)">
                    <g id="Group" stroke-width="1" fill-rule="evenodd" transform="translate(96.000000, 0.000000)">
                        <g id="button/icon" fill="#FFFFFF">
                            <path d="M21.125,5 L4.875,5 C3.83945312,5 3,5.83945312 3,6.875 L3,18.125 C3,19.1605469 3.83945312,20 4.875,20 L21.125,20 C22.1605469,20 23,19.1605469 23,18.125 L23,6.875 C23,5.83945312 22.1605469,5 21.125,5 Z M21.125,6.875 L21.125,8.46894531 C20.2491406,9.1821875 18.8528125,10.29125 15.8676953,12.6287109 C15.2098437,13.1461719 13.9067187,14.3893359 13,14.3748438 C12.0934375,14.3894922 10.7898828,13.1459766 10.1323047,12.6287109 C7.14765625,10.2916016 5.75097656,9.18230469 4.875,8.46894531 L4.875,6.875 L21.125,6.875 Z M4.875,18.125 L4.875,10.8749219 C5.77007812,11.5878516 7.03941406,12.5882812 8.97414063,14.1032812 C9.82792969,14.7753516 11.323125,16.2589844 13,16.2499609 C14.6686328,16.2589844 16.1448828,14.796875 17.0255078,14.1035937 C18.9601953,12.5886328 20.2298828,11.5879297 21.125,10.8749219 L21.125,18.125 L4.875,18.125 Z" id="icon/envelope"></path>
                        </g>
                    </g>
                    <text id="button/text" font-family="Roboto-Bold, Roboto" font-size="16" font-weight="bold">
                        <tspan x="0" y="18" fill="#FFFFFF">Contact me</tspan>
                    </text>
                </g>
            </g>
        </g>
    </g>
</svg>