<?xml version="1.0" encoding="UTF-8"?>
<svg width="25px" height="25px" viewBox="0 0 25 25" version="1.1" xmlns="http://www.w3.org/2000/svg" xmlns:xlink="http://www.w3.org/1999/xlink">
    <title>atom/icon/envelope</title>
    <g id="Symbols" stroke="none" stroke-width="1" fill="none" fill-rule="evenodd">
        <g id="atom/icon/envelope" fill="#000000">
            <path d="M21.125,5 L4.875,5 C3.83945312,5 3,5.83945312 3,6.875 L3,18.125 C3,19.1605469 3.83945312,20 4.875,20 L21.125,20 C22.1605469,20 23,19.1605469 23,18.125 L23,6.875 C23,5.83945312 22.1605469,5 21.125,5 Z M21.125,6.875 L21.125,8.46894531 C20.2491406,9.1821875 18.8528125,10.29125 15.8676953,12.6287109 C15.2098437,13.1461719 13.9067187,14.3893359 13,14.3748438 C12.0934375,14.3894922 10.7898828,13.1459766 10.1323047,12.6287109 C7.14765625,10.2916016 5.75097656,9.18230469 4.875,8.46894531 L4.875,6.875 L21.125,6.875 Z M4.875,18.125 L4.875,10.8749219 C5.77007812,11.5878516 7.03941406,12.5882812 8.97414063,14.1032812 C9.82792969,14.7753516 11.323125,16.2589844 13,16.2499609 C14.6686328,16.2589844 16.1448828,14.796875 17.0255078,14.1035937 C18.9601953,12.5886328 20.2298828,11.5879297 21.125,10.8749219 L21.125,18.125 L4.875,18.125 Z" id="icon/envelope"></path>
        </g>
    </g>
</svg>