<?xml version="1.0" encoding="UTF-8"?>
<svg width="25px" height="25px" viewBox="0 0 25 25" version="1.1" xmlns="http://www.w3.org/2000/svg" xmlns:xlink="http://www.w3.org/1999/xlink">
    <title>atom/icon/linkedin</title>
    <g id="Symbols" stroke="none" stroke-width="1" fill="none" fill-rule="evenodd">
        <g id="atom/icon/linkedin" fill="#000000">
            <path d="M7.47678571,23 L3.33035714,23 L3.33035714,9.64732143 L7.47678571,9.64732143 L7.47678571,23 Z M5.40133929,7.82589286 C4.07544643,7.82589286 3,6.72767857 3,5.40178571 C3,4.07556266 4.07511623,3.00044646 5.40133929,3.00044646 C6.72756234,3.00044646 7.80267857,4.07556266 7.80267857,5.40178571 C7.80267857,6.72767857 6.72678571,7.82589286 5.40133929,7.82589286 Z M22.9955357,23 L18.8580357,23 L18.8580357,16.5 C18.8580357,14.9508929 18.8267857,12.9642857 16.7022321,12.9642857 C14.5464286,12.9642857 14.2160714,14.6473214 14.2160714,16.3883929 L14.2160714,23 L10.0741071,23 L10.0741071,9.64732143 L14.0508929,9.64732143 L14.0508929,11.46875 L14.1089286,11.46875 C14.6625,10.4196429 16.0147321,9.3125 18.0321429,9.3125 C22.2285714,9.3125 23,12.0758929 23,15.6651786 L23,23 L22.9955357,23 Z" id="icon/linkedin"></path>
        </g>
    </g>
</svg>