<?xml version="1.0" encoding="UTF-8"?>
<svg width="25px" height="25px" viewBox="0 0 25 25" version="1.1" xmlns="http://www.w3.org/2000/svg" xmlns:xlink="http://www.w3.org/1999/xlink">
    <title>atom/icon/medium</title>
    <g id="Symbols" stroke="none" stroke-width="1" fill="none" fill-rule="evenodd">
        <g id="atom/icon/medium" fill="#000000">
            <path d="M3,3 L3,23 L23,23 L23,3 L3,3 Z M19.6160714,7.73660714 L18.5446429,8.76339286 C18.4508929,8.83482143 18.40625,8.95089286 18.4241071,9.0625 L18.4241071,16.6205357 C18.40625,16.7366071 18.4508929,16.8526786 18.5446429,16.9196429 L19.59375,17.9464286 L19.59375,18.1741071 L14.3258929,18.1741071 L14.3258929,17.9553571 L15.4107143,16.9017857 C15.5178571,16.7946429 15.5178571,16.7633929 15.5178571,16.6026786 L15.5178571,10.4910714 L12.5,18.1517857 L12.09375,18.1517857 L8.58035714,10.4910714 L8.58035714,15.625 C8.54910714,15.8392857 8.625,16.0580357 8.77678571,16.2142857 L10.1875,17.9241071 L10.1875,18.1517857 L6.17857143,18.1517857 L6.17857143,17.9241071 L7.58928571,16.2142857 C7.74107143,16.0580357 7.80803571,15.8392857 7.77232143,15.625 L7.77232143,9.6875 C7.79017857,9.52232143 7.72767857,9.36160714 7.60267857,9.25 L6.34821429,7.73660714 L6.34821429,7.50892857 L10.2455357,7.50892857 L13.2544643,14.1160714 L15.9017857,7.51339286 L19.6160714,7.51339286 L19.6160714,7.73660714 Z" id="icon/medium"></path>
        </g>
    </g>
</svg>