<?xml version="1.0" encoding="UTF-8"?>
<svg width="25px" height="25px" viewBox="0 0 25 25" version="1.1" xmlns="http://www.w3.org/2000/svg" xmlns:xlink="http://www.w3.org/1999/xlink">
    <title>atom/icon/twitter</title>
    <g id="Symbols" stroke="none" stroke-width="1" fill="none" fill-rule="evenodd">
        <g id="atom/icon/twitter" fill="#000000">
            <path d="M20.9442107,8.05142206 C20.9569061,8.22907901 20.9569061,8.40677501 20.9569061,8.58443196 C20.9569061,14.0032031 16.832554,20.2468994 9.29443865,20.2468994 C6.97208583,20.2468994 4.81473365,19.5742796 3,18.4068141 C3.32996223,18.4448611 3.64719003,18.4575565 3.98984762,18.4575565 C5.90606604,18.4575565 7.6700573,17.8103664 9.07869562,16.7062996 C7.27665733,16.6682135 5.76649518,15.4880136 5.24618065,13.8636323 C5.5,13.9016793 5.75379982,13.92707 6.0203243,13.92707 C6.38833355,13.92707 6.75638186,13.8762886 7.09900039,13.7874992 C5.22082899,13.4067555 3.81215161,11.7570225 3.81215161,9.76463188 L3.81215161,9.71388949 C4.3578178,10.018461 4.9923906,10.2088133 5.66493228,10.234165 C4.56086547,9.4981074 3.83754233,8.24177437 3.83754233,6.82044069 C3.83754233,6.05903147 4.04055094,5.36105999 4.39590389,4.75191699 C6.41368521,7.23923139 9.44670487,8.86357367 12.8476947,9.04126968 C12.784257,8.73669818 12.7461709,8.41947038 12.7461709,8.10220351 C12.7461709,5.84328844 14.5735999,4.00320313 16.8451713,4.00320313 C18.0253712,4.00320313 19.0913519,4.49812693 19.8401048,5.29762224 C20.7664757,5.1199653 21.6547994,4.77730771 22.4416384,4.30777463 C22.1370279,5.25957522 21.4898379,6.05907053 20.6396002,6.56665064 C21.4644862,6.47786123 22.2639815,6.24938377 23,5.93215597 C22.4417166,6.74430758 21.743706,7.46763072 20.9442107,8.05142206 Z" id="icon/twitter"></path>
        </g>
    </g>
</svg>