<?xml version="1.0" encoding="UTF-8"?>
<svg width="300px" height="280px" viewBox="0 0 300 280" version="1.1" xmlns="http://www.w3.org/2000/svg" xmlns:xlink="http://www.w3.org/1999/xlink">
    <title>molecule/card/project</title>
    <defs>
        <rect id="path-1" x="0" y="0" width="300" height="280" rx="10"></rect>
        <filter x="-25.0%" y="-16.1%" width="150.0%" height="153.6%" filterUnits="objectBoundingBox" id="filter-2">
            <feOffset dx="0" dy="30" in="SourceAlpha" result="shadowOffsetOuter1"></feOffset>
            <feGaussianBlur stdDeviation="20" in="shadowOffsetOuter1" result="shadowBlurOuter1"></feGaussianBlur>
            <feColorMatrix values="0 0 0 0 0   0 0 0 0 0   0 0 0 0 0  0 0 0 0.07 0" type="matrix" in="shadowBlurOuter1"></feColorMatrix>
        </filter>
    </defs>
    <g id="Symbols" stroke="none" stroke-width="1" fill="none" fill-rule="evenodd">
        <g id="molecule/card/project">
            <g id="card/shape">
                <use fill="black" fill-opacity="1" filter="url(#filter-2)" xlink:href="#path-1"></use>
                <use fill="#FFFFFF" fill-rule="evenodd" xlink:href="#path-1"></use>
            </g>
            <text id="card/content" font-family="Roboto-Light, Roboto" font-size="16" font-weight="300" line-spacing="26" fill="#000000">
                <tspan x="22" y="111">A Gulp task collection for static </tspan>
                <tspan x="22" y="137">websites.</tspan>
            </text>
            <g id="card/heading" transform="translate(22.000000, 59.000000)">
                <rect id="heading/highlight" fill="#F7EB89" x="0" y="12" width="200" height="12"></rect>
                <text id="heading/text" font-family="Roboto-Medium, Roboto" font-size="20" font-weight="400" fill="#000000">
                    <tspan x="0" y="19">gulp-static-starterkit</tspan>
                </text>
            </g>
            <g id="icon/github" transform="translate(22.000000, 21.000000)" fill="#000000">
                <path d="M9.68951613,18.7016129 C9.68951613,18.7822581 9.59677419,18.8467742 9.47983871,18.8467742 C9.34677419,18.858871 9.25403226,18.7943548 9.25403226,18.7016129 C9.25403226,18.6209677 9.34677419,18.5564516 9.46370968,18.5564516 C9.58467742,18.5443548 9.68951613,18.608871 9.68951613,18.7016129 Z M8.43548387,18.5201613 C8.40725806,18.6008065 8.48790323,18.6935484 8.60887097,18.7177419 C8.71370968,18.7580645 8.83467742,18.7177419 8.85887097,18.6370968 C8.88306452,18.5564516 8.80645161,18.4637097 8.68548387,18.4274194 C8.58064516,18.3991935 8.46370968,18.4395161 8.43548387,18.5201613 Z M10.2177419,18.4516129 C10.1008065,18.4798387 10.0201613,18.5564516 10.0322581,18.6491935 C10.0443548,18.7298387 10.1491935,18.7822581 10.2701613,18.7540323 C10.3870968,18.7258065 10.4677419,18.6491935 10.4556452,18.5685484 C10.4435484,18.4919355 10.3346774,18.4395161 10.2177419,18.4516129 Z M12.8709677,3 C7.27822581,3 3,7.24596774 3,12.8387097 C3,17.3104839 5.81451613,21.1370968 9.83467742,22.483871 C10.3508065,22.5766129 10.5322581,22.2580645 10.5322581,21.9959677 C10.5322581,21.7459677 10.5201613,20.3669355 10.5201613,19.5201613 C10.5201613,19.5201613 7.69758065,20.125 7.10483871,18.3185484 C7.10483871,18.3185484 6.64516129,17.1451613 5.98387097,16.8427419 C5.98387097,16.8427419 5.06048387,16.2096774 6.0483871,16.2217742 C6.0483871,16.2217742 7.05241935,16.3024194 7.60483871,17.2620968 C8.48790323,18.8185484 9.96774194,18.3709677 10.5443548,18.1048387 C10.6370968,17.4596774 10.8991935,17.0120968 11.1895161,16.7459677 C8.93548387,16.4959677 6.66129032,16.1693548 6.66129032,12.2903226 C6.66129032,11.1814516 6.96774194,10.625 7.61290323,9.91532258 C7.50806452,9.65322581 7.16532258,8.57258065 7.71774194,7.17741935 C8.56048387,6.91532258 10.5,8.26612903 10.5,8.26612903 C11.3064516,8.04032258 12.1733871,7.9233871 13.0322581,7.9233871 C13.891129,7.9233871 14.7580645,8.04032258 15.5645161,8.26612903 C15.5645161,8.26612903 17.5040323,6.91129032 18.3467742,7.17741935 C18.8991935,8.5766129 18.5564516,9.65322581 18.4516129,9.91532258 C19.0967742,10.6290323 19.4919355,11.1854839 19.4919355,12.2903226 C19.4919355,16.1814516 17.1169355,16.4919355 14.8629032,16.7459677 C15.233871,17.0645161 15.5483871,17.6693548 15.5483871,18.6169355 C15.5483871,19.9758065 15.5362903,21.6572581 15.5362903,21.9879032 C15.5362903,22.25 15.7217742,22.5685484 16.233871,22.4758065 C20.266129,21.1370968 23,17.3104839 23,12.8387097 C23,7.24596774 18.4637097,3 12.8709677,3 Z M6.91935484,16.9072581 C6.86693548,16.9475806 6.87903226,17.0403226 6.94758065,17.1169355 C7.01209677,17.1814516 7.10483871,17.2096774 7.15725806,17.1572581 C7.20967742,17.1169355 7.19758065,17.0241935 7.12903226,16.9475806 C7.06451613,16.8830645 6.97177419,16.8548387 6.91935484,16.9072581 Z M6.48387097,16.5806452 C6.45564516,16.6330645 6.49596774,16.6975806 6.5766129,16.7379032 C6.64112903,16.7782258 6.72177419,16.766129 6.75,16.7096774 C6.77822581,16.6572581 6.73790323,16.5927419 6.65725806,16.5524194 C6.5766129,16.5282258 6.51209677,16.5403226 6.48387097,16.5806452 Z M7.79032258,18.016129 C7.72580645,18.0685484 7.75,18.1895161 7.84274194,18.266129 C7.93548387,18.358871 8.05241935,18.3709677 8.10483871,18.3064516 C8.15725806,18.2540323 8.13306452,18.1330645 8.05241935,18.0564516 C7.96370968,17.9637097 7.84274194,17.9516129 7.79032258,18.016129 Z M7.33064516,17.4233871 C7.26612903,17.4637097 7.26612903,17.5685484 7.33064516,17.6612903 C7.39516129,17.7540323 7.50403226,17.7943548 7.55645161,17.7540323 C7.62096774,17.7016129 7.62096774,17.5967742 7.55645161,17.5040323 C7.5,17.4112903 7.39516129,17.3709677 7.33064516,17.4233871 Z"></path>
            </g>
            <text id="View-repository-➝" font-family="Roboto-Bold, Roboto" font-size="16" font-weight="bold" fill="#000000">
                <tspan x="20" y="255">View repository</tspan>
                <tspan x="132.421875" y="255" font-family="Roboto-Light, Roboto" font-weight="300"> </tspan>
                <tspan x="136.3125" y="255" font-family="ZapfDingbatsITC, Zapf Dingbats" font-weight="normal">➝</tspan>
            </text>
        </g>
    </g>
</svg>