<?xml version="1.0" encoding="UTF-8"?>
<svg width="370px" height="668px" viewBox="0 0 370 668" version="1.1" xmlns="http://www.w3.org/2000/svg" xmlns:xlink="http://www.w3.org/1999/xlink">
    <title>layout/section/intro</title>
    <defs>
        <rect id="path-1" x="0" y="0" width="265" height="50" rx="5"></rect>
        <rect id="path-3" x="0" y="0" width="265" height="50" rx="5"></rect>
    </defs>
    <g id="Symbols" stroke="none" stroke-width="1" fill="none" fill-rule="evenodd">
        <g id="layout/section/intro">
            <g id="intro/cta" transform="translate(0.000000, 550.000000)">
                <g id="atom/button/send-me-an-email" transform="translate(0.000000, 68.000000)">
                    <mask id="mask-2" fill="white">
                        <use xlink:href="#path-1"></use>
                    </mask>
                    <use id="button/mask" fill="#000000" xlink:href="#path-1"></use>
                    <g id="button/content" mask="url(#mask-2)">
                        <g transform="translate(42.063492, 13.000000)">
                            <g id="Group" stroke-width="1" fill-rule="evenodd" transform="translate(156.279762, 0.000000)">
                                <g id="atom/icon/envelope" fill="#FFFFFF">
                                    <path d="M21.125,5 L4.875,5 C3.83945312,5 3,5.83945312 3,6.875 L3,18.125 C3,19.1605469 3.83945312,20 4.875,20 L21.125,20 C22.1605469,20 23,19.1605469 23,18.125 L23,6.875 C23,5.83945312 22.1605469,5 21.125,5 Z M21.125,6.875 L21.125,8.46894531 C20.2491406,9.1821875 18.8528125,10.29125 15.8676953,12.6287109 C15.2098437,13.1461719 13.9067187,14.3893359 13,14.3748438 C12.0934375,14.3894922 10.7898828,13.1459766 10.1323047,12.6287109 C7.14765625,10.2916016 5.75097656,9.18230469 4.875,8.46894531 L4.875,6.875 L21.125,6.875 Z M4.875,18.125 L4.875,10.8749219 C5.77007812,11.5878516 7.03941406,12.5882812 8.97414063,14.1032812 C9.82792969,14.7753516 11.323125,16.2589844 13,16.2499609 C14.6686328,16.2589844 16.1448828,14.796875 17.0255078,14.1035937 C18.9601953,12.5886328 20.2298828,11.5879297 21.125,10.8749219 L21.125,18.125 L4.875,18.125 Z" id="icon/envelope"></path>
                                </g>
                            </g>
                            <text id="button/text" font-family="Roboto-Bold, Roboto" font-size="16" font-weight="bold">
                                <tspan x="0" y="18" fill="#FFFFFF">Send me an e-mail</tspan>
                            </text>
                        </g>
                    </g>
                </g>
                <g id="atom/button/download-my-cv">
                    <mask id="mask-4" fill="white">
                        <use xlink:href="#path-3"></use>
                    </mask>
                    <rect stroke="#000000" x="0.5" y="0.5" width="264" height="49" rx="5"></rect>
                    <g id="button/content" mask="url(#mask-4)">
                        <g transform="translate(44.351464, 13.000000)">
                            <g id="Group" stroke-width="1" fill-rule="evenodd" transform="translate(151.046025, 0.000000)">
                                <g id="atom/icon/envelope" fill="#000000">
                                    <path d="M11.4375,3 L14.5625,3 C15.0820312,3 15.5,3.41796875 15.5,3.9375 L15.5,10.5 L18.9257812,10.5 C19.6210937,10.5 19.96875,11.3398438 19.4765625,11.8320312 L13.5351562,17.7773438 C13.2421875,18.0703125 12.7617187,18.0703125 12.46875,17.7773438 L6.51953125,11.8320312 C6.02734375,11.3398438 6.375,10.5 7.0703125,10.5 L10.5,10.5 L10.5,3.9375 C10.5,3.41796875 10.9179687,3 11.4375,3 Z M23,17.6875 L23,22.0625 C23,22.5820312 22.5820312,23 22.0625,23 L3.9375,23 C3.41796875,23 3,22.5820312 3,22.0625 L3,17.6875 C3,17.1679688 3.41796875,16.75 3.9375,16.75 L9.66796875,16.75 L11.5820312,18.6640625 C12.3671875,19.4492188 13.6328125,19.4492188 14.4179687,18.6640625 L16.3320312,16.75 L22.0625,16.75 C22.5820312,16.75 23,17.1679688 23,17.6875 Z M18.15625,21.125 C18.15625,20.6953125 17.8046875,20.34375 17.375,20.34375 C16.9453125,20.34375 16.59375,20.6953125 16.59375,21.125 C16.59375,21.5546875 16.9453125,21.90625 17.375,21.90625 C17.8046875,21.90625 18.15625,21.5546875 18.15625,21.125 Z M20.65625,21.125 C20.65625,20.6953125 20.3046875,20.34375 19.875,20.34375 C19.4453125,20.34375 19.09375,20.6953125 19.09375,21.125 C19.09375,21.5546875 19.4453125,21.90625 19.875,21.90625 C20.3046875,21.90625 20.65625,21.5546875 20.65625,21.125 Z" id="icon/download"></path>
                                </g>
                            </g>
                            <text id="button/text" font-family="Roboto-Bold, Roboto" font-size="16" font-weight="bold">
                                <tspan x="0" y="18" fill="#000000">Download my CV</tspan>
                            </text>
                        </g>
                    </g>
                </g>
            </g>
            <g id="Group" transform="translate(0.000000, 389.000000)" fill="#000000">
                <g transform="translate(0.000000, 100.000000)" id="molecule/social-link/medium">
                    <g id="icon/medium">
                        <path d="M3,3 L3,23 L23,23 L23,3 L3,3 Z M19.6160714,7.73660714 L18.5446429,8.76339286 C18.4508929,8.83482143 18.40625,8.95089286 18.4241071,9.0625 L18.4241071,16.6205357 C18.40625,16.7366071 18.4508929,16.8526786 18.5446429,16.9196429 L19.59375,17.9464286 L19.59375,18.1741071 L14.3258929,18.1741071 L14.3258929,17.9553571 L15.4107143,16.9017857 C15.5178571,16.7946429 15.5178571,16.7633929 15.5178571,16.6026786 L15.5178571,10.4910714 L12.5,18.1517857 L12.09375,18.1517857 L8.58035714,10.4910714 L8.58035714,15.625 C8.54910714,15.8392857 8.625,16.0580357 8.77678571,16.2142857 L10.1875,17.9241071 L10.1875,18.1517857 L6.17857143,18.1517857 L6.17857143,17.9241071 L7.58928571,16.2142857 C7.74107143,16.0580357 7.80803571,15.8392857 7.77232143,15.625 L7.77232143,9.6875 C7.79017857,9.52232143 7.72767857,9.36160714 7.60267857,9.25 L6.34821429,7.73660714 L6.34821429,7.50892857 L10.2455357,7.50892857 L13.2544643,14.1160714 L15.9017857,7.51339286 L19.6160714,7.51339286 L19.6160714,7.73660714 Z"></path>
                    </g>
                    <text id="GitHub-➝" font-family="Roboto-Light, Roboto" font-size="16" font-weight="300">
                        <tspan x="38" y="18">Medium </tspan>
                        <tspan x="99.4453125" y="18" font-family="ZapfDingbatsITC, Zapf Dingbats" font-weight="normal">➝</tspan>
                    </text>
                </g>
                <g transform="translate(197.000000, 50.000000)" id="molecule/social-link/skype">
                    <g id="icon/skype">
                        <path d="M21.9598214,14.9553571 C22.0892857,14.3303571 22.1696429,13.6651786 22.1696429,13 C22.1696429,7.93303571 18.0669643,3.83482143 13.0044643,3.83482143 C12.3392857,3.83482143 11.6785714,3.91071429 11.0491071,4.04464286 C10.2008929,3.38839286 9.14732143,3 8,3 C5.24107143,3 3,5.24107143 3,8 C3,9.14732143 3.38839286,10.2008929 4.04017857,11.0446429 C3.91071429,11.6696429 3.83035714,12.3348214 3.83035714,13 C3.83035714,18.0669643 7.93303571,22.1651786 12.9955357,22.1651786 C13.6607143,22.1651786 14.3214286,22.0892857 14.9508929,21.9553571 C15.7991071,22.6071429 16.8526786,22.9955357 17.9955357,22.9955357 C20.7544643,22.9955357 22.9955738,20.7544643 22.9955738,17.9955357 C23,16.8526786 22.6116071,15.7991071 21.9598214,14.9553571 L21.9598214,14.9553571 Z M13.2723214,19.0401786 C10.34375,19.0401786 7.89285714,17.7366071 7.89285714,16.1383929 C7.89285714,15.4241071 8.29464286,14.7723214 9.20982143,14.7723214 C10.6026786,14.7723214 10.7321429,16.7767857 13.1428571,16.7767857 C14.2901786,16.7767857 15.03125,16.2678571 15.03125,15.6026786 C15.03125,14.7678571 14.3169643,14.6383929 13.15625,14.3526786 C10.3660714,13.6651786 7.89732143,13.3705357 7.89732143,10.4598214 C7.89732143,7.81696429 10.5133929,6.83928571 12.7678571,6.83928571 C15.2276786,6.83928571 17.7142857,7.81696429 17.7142857,9.3125 C17.7142857,10.0669643 17.2053571,10.7321429 16.3616071,10.7321429 C15.0982143,10.7321429 15.0580357,9.23660714 13.0133929,9.23660714 C11.8660714,9.23660714 11.1383929,9.54910714 11.1383929,10.2410714 C11.1383929,11.125 12.0669643,11.2142857 14.2232143,11.7142857 C16.0714286,12.1294643 18.2723214,12.9107143 18.2723214,15.1785714 C18.2723214,17.8169643 15.7232143,19.0401786 13.2723214,19.0401786 L13.2723214,19.0401786 Z"></path>
                    </g>
                    <text id="GitHub-➝" font-family="Roboto-Light, Roboto" font-size="16" font-weight="300">
                        <tspan x="38" y="18">Skype </tspan>
                        <tspan x="83.9375" y="18" font-family="ZapfDingbatsITC, .Apple Symbols Fallback" font-weight="normal">➝</tspan>
                    </text>
                </g>
                <g transform="translate(0.000000, 50.000000)" id="molecule/social-link/twitter">
                    <g id="icon/twitter">
                        <path d="M20.9442107,8.05142206 C20.9569061,8.22907901 20.9569061,8.40677501 20.9569061,8.58443196 C20.9569061,14.0032031 16.832554,20.2468994 9.29443865,20.2468994 C6.97208583,20.2468994 4.81473365,19.5742796 3,18.4068141 C3.32996223,18.4448611 3.64719003,18.4575565 3.98984762,18.4575565 C5.90606604,18.4575565 7.6700573,17.8103664 9.07869562,16.7062996 C7.27665733,16.6682135 5.76649518,15.4880136 5.24618065,13.8636323 C5.5,13.9016793 5.75379982,13.92707 6.0203243,13.92707 C6.38833355,13.92707 6.75638186,13.8762886 7.09900039,13.7874992 C5.22082899,13.4067555 3.81215161,11.7570225 3.81215161,9.76463188 L3.81215161,9.71388949 C4.3578178,10.018461 4.9923906,10.2088133 5.66493228,10.234165 C4.56086547,9.4981074 3.83754233,8.24177437 3.83754233,6.82044069 C3.83754233,6.05903147 4.04055094,5.36105999 4.39590389,4.75191699 C6.41368521,7.23923139 9.44670487,8.86357367 12.8476947,9.04126968 C12.784257,8.73669818 12.7461709,8.41947038 12.7461709,8.10220351 C12.7461709,5.84328844 14.5735999,4.00320313 16.8451713,4.00320313 C18.0253712,4.00320313 19.0913519,4.49812693 19.8401048,5.29762224 C20.7664757,5.1199653 21.6547994,4.77730771 22.4416384,4.30777463 C22.1370279,5.25957522 21.4898379,6.05907053 20.6396002,6.56665064 C21.4644862,6.47786123 22.2639815,6.24938377 23,5.93215597 C22.4417166,6.74430758 21.743706,7.46763072 20.9442107,8.05142206 Z"></path>
                    </g>
                    <text id="GitHub-➝" font-family="Roboto-Light, Roboto" font-size="16" font-weight="300">
                        <tspan x="38" y="18">Twitter </tspan>
                        <tspan x="91.0234375" y="18" font-family="ZapfDingbatsITC, Zapf Dingbats" font-weight="normal">➝</tspan>
                    </text>
                </g>
                <g transform="translate(197.000000, 0.000000)" id="molecule/social-link/linkedin">
                    <g id="icon/linkedin">
                        <path d="M7.47678571,23 L3.33035714,23 L3.33035714,9.64732143 L7.47678571,9.64732143 L7.47678571,23 Z M5.40133929,7.82589286 C4.07544643,7.82589286 3,6.72767857 3,5.40178571 C3,4.07556266 4.07511623,3.00044646 5.40133929,3.00044646 C6.72756234,3.00044646 7.80267857,4.07556266 7.80267857,5.40178571 C7.80267857,6.72767857 6.72678571,7.82589286 5.40133929,7.82589286 Z M22.9955357,23 L18.8580357,23 L18.8580357,16.5 C18.8580357,14.9508929 18.8267857,12.9642857 16.7022321,12.9642857 C14.5464286,12.9642857 14.2160714,14.6473214 14.2160714,16.3883929 L14.2160714,23 L10.0741071,23 L10.0741071,9.64732143 L14.0508929,9.64732143 L14.0508929,11.46875 L14.1089286,11.46875 C14.6625,10.4196429 16.0147321,9.3125 18.0321429,9.3125 C22.2285714,9.3125 23,12.0758929 23,15.6651786 L23,23 L22.9955357,23 Z"></path>
                    </g>
                    <text id="GitHub-➝" font-family="Roboto-Light, Roboto" font-size="16" font-weight="300">
                        <tspan x="38" y="18">LinkedIn </tspan>
                        <tspan x="100.734375" y="18" font-family="ZapfDingbatsITC, Zapf Dingbats" font-weight="normal">➝</tspan>
                    </text>
                </g>
                <g>
                    <g id="icon/github">
                        <path d="M9.68951613,18.7016129 C9.68951613,18.7822581 9.59677419,18.8467742 9.47983871,18.8467742 C9.34677419,18.858871 9.25403226,18.7943548 9.25403226,18.7016129 C9.25403226,18.6209677 9.34677419,18.5564516 9.46370968,18.5564516 C9.58467742,18.5443548 9.68951613,18.608871 9.68951613,18.7016129 Z M8.43548387,18.5201613 C8.40725806,18.6008065 8.48790323,18.6935484 8.60887097,18.7177419 C8.71370968,18.7580645 8.83467742,18.7177419 8.85887097,18.6370968 C8.88306452,18.5564516 8.80645161,18.4637097 8.68548387,18.4274194 C8.58064516,18.3991935 8.46370968,18.4395161 8.43548387,18.5201613 Z M10.2177419,18.4516129 C10.1008065,18.4798387 10.0201613,18.5564516 10.0322581,18.6491935 C10.0443548,18.7298387 10.1491935,18.7822581 10.2701613,18.7540323 C10.3870968,18.7258065 10.4677419,18.6491935 10.4556452,18.5685484 C10.4435484,18.4919355 10.3346774,18.4395161 10.2177419,18.4516129 Z M12.8709677,3 C7.27822581,3 3,7.24596774 3,12.8387097 C3,17.3104839 5.81451613,21.1370968 9.83467742,22.483871 C10.3508065,22.5766129 10.5322581,22.2580645 10.5322581,21.9959677 C10.5322581,21.7459677 10.5201613,20.3669355 10.5201613,19.5201613 C10.5201613,19.5201613 7.69758065,20.125 7.10483871,18.3185484 C7.10483871,18.3185484 6.64516129,17.1451613 5.98387097,16.8427419 C5.98387097,16.8427419 5.06048387,16.2096774 6.0483871,16.2217742 C6.0483871,16.2217742 7.05241935,16.3024194 7.60483871,17.2620968 C8.48790323,18.8185484 9.96774194,18.3709677 10.5443548,18.1048387 C10.6370968,17.4596774 10.8991935,17.0120968 11.1895161,16.7459677 C8.93548387,16.4959677 6.66129032,16.1693548 6.66129032,12.2903226 C6.66129032,11.1814516 6.96774194,10.625 7.61290323,9.91532258 C7.50806452,9.65322581 7.16532258,8.57258065 7.71774194,7.17741935 C8.56048387,6.91532258 10.5,8.26612903 10.5,8.26612903 C11.3064516,8.04032258 12.1733871,7.9233871 13.0322581,7.9233871 C13.891129,7.9233871 14.7580645,8.04032258 15.5645161,8.26612903 C15.5645161,8.26612903 17.5040323,6.91129032 18.3467742,7.17741935 C18.8991935,8.5766129 18.5564516,9.65322581 18.4516129,9.91532258 C19.0967742,10.6290323 19.4919355,11.1854839 19.4919355,12.2903226 C19.4919355,16.1814516 17.1169355,16.4919355 14.8629032,16.7459677 C15.233871,17.0645161 15.5483871,17.6693548 15.5483871,18.6169355 C15.5483871,19.9758065 15.5362903,21.6572581 15.5362903,21.9879032 C15.5362903,22.25 15.7217742,22.5685484 16.233871,22.4758065 C20.266129,21.1370968 23,17.3104839 23,12.8387097 C23,7.24596774 18.4637097,3 12.8709677,3 Z M6.91935484,16.9072581 C6.86693548,16.9475806 6.87903226,17.0403226 6.94758065,17.1169355 C7.01209677,17.1814516 7.10483871,17.2096774 7.15725806,17.1572581 C7.20967742,17.1169355 7.19758065,17.0241935 7.12903226,16.9475806 C7.06451613,16.8830645 6.97177419,16.8548387 6.91935484,16.9072581 Z M6.48387097,16.5806452 C6.45564516,16.6330645 6.49596774,16.6975806 6.5766129,16.7379032 C6.64112903,16.7782258 6.72177419,16.766129 6.75,16.7096774 C6.77822581,16.6572581 6.73790323,16.5927419 6.65725806,16.5524194 C6.5766129,16.5282258 6.51209677,16.5403226 6.48387097,16.5806452 Z M7.79032258,18.016129 C7.72580645,18.0685484 7.75,18.1895161 7.84274194,18.266129 C7.93548387,18.358871 8.05241935,18.3709677 8.10483871,18.3064516 C8.15725806,18.2540323 8.13306452,18.1330645 8.05241935,18.0564516 C7.96370968,17.9637097 7.84274194,17.9516129 7.79032258,18.016129 Z M7.33064516,17.4233871 C7.26612903,17.4637097 7.26612903,17.5685484 7.33064516,17.6612903 C7.39516129,17.7540323 7.50403226,17.7943548 7.55645161,17.7540323 C7.62096774,17.7016129 7.62096774,17.5967742 7.55645161,17.5040323 C7.5,17.4112903 7.39516129,17.3709677 7.33064516,17.4233871 Z"></path>
                    </g>
                    <text id="GitHub-➝" font-family="Roboto-Light, Roboto" font-size="16" font-weight="300">
                        <tspan x="38" y="18">GitHub </tspan>
                        <tspan x="90.53125" y="18" font-family="ZapfDingbatsITC, Zapf Dingbats" font-weight="normal">➝</tspan>
                    </text>
                </g>
            </g>
            <g id="intro/content" fill="#000000">
                <text id="content/text" font-family="Roboto-Light, Roboto" font-size="22" font-weight="300">
                    <tspan x="0" y="88">I am a passionate and versatile Web </tspan>
                    <tspan x="0" y="113">Developer.</tspan>
                    <tspan x="0" y="168">I love to write elegant and efficient </tspan>
                    <tspan x="0" y="193">code.</tspan>
                    <tspan x="0" y="248">Choosing the name of a variable, </tspan>
                    <tspan x="0" y="273">creating a performance function, </tspan>
                    <tspan x="0" y="298">clearly structuring the components of </tspan>
                    <tspan x="0" y="323">a website, writing an effective test. </tspan>
                    <tspan x="0" y="348">Isn't that art? </tspan>
                    <tspan x="130.173828" y="348" font-family="AppleColorEmoji, Apple Color Emoji" font-weight="normal">😁</tspan>
                </text>
                <text id="content/heading" font-family="Roboto-Bold, Roboto" font-size="42" font-weight="bold">
                    <tspan x="0" y="39">&lt;Luca Pipolo&gt;</tspan>
                </text>
            </g>
        </g>
    </g>
</svg>