<?xml version="1.0" encoding="UTF-8"?>
<svg width="1440px" height="94px" viewBox="0 0 1440 94" version="1.1" xmlns="http://www.w3.org/2000/svg" xmlns:xlink="http://www.w3.org/1999/xlink">
    <title>organism/header/xl</title>
    <defs>
        <rect id="path-1" x="0" y="0" width="251" height="50" rx="5"></rect>
        <rect id="path-3" x="0" y="0" width="239" height="50" rx="5"></rect>
    </defs>
    <g id="Symbols" stroke="none" stroke-width="1" fill="none" fill-rule="evenodd">
        <g id="organism/header/xl">
            <rect id="header/shape" fill="#FFFFFF" x="0" y="0" width="1440" height="90"></rect>
            <line x1="2" y1="93.5" x2="837" y2="93.5" id="header/loading-bar" stroke="#000000" stroke-width="8" stroke-linecap="square"></line>
            <g id="header/button" transform="translate(1059.000000, 20.000000)">
                <mask id="mask-2" fill="white">
                    <use xlink:href="#path-1"></use>
                </mask>
                <use id="button/mask" fill="#000000" xlink:href="#path-1"></use>
                <g id="button/content" mask="url(#mask-2)">
                    <g transform="translate(40.000000, 13.000000)">
                        <g id="Group" stroke-width="1" fill-rule="evenodd" transform="translate(147.000000, 0.000000)">
                            <g id="button/icon" fill="#FFFFFF">
                                <path d="M21.125,5 L4.875,5 C3.83945312,5 3,5.83945312 3,6.875 L3,18.125 C3,19.1605469 3.83945312,20 4.875,20 L21.125,20 C22.1605469,20 23,19.1605469 23,18.125 L23,6.875 C23,5.83945312 22.1605469,5 21.125,5 Z M21.125,6.875 L21.125,8.46894531 C20.2491406,9.1821875 18.8528125,10.29125 15.8676953,12.6287109 C15.2098437,13.1461719 13.9067187,14.3893359 13,14.3748438 C12.0934375,14.3894922 10.7898828,13.1459766 10.1323047,12.6287109 C7.14765625,10.2916016 5.75097656,9.18230469 4.875,8.46894531 L4.875,6.875 L21.125,6.875 Z M4.875,18.125 L4.875,10.8749219 C5.77007812,11.5878516 7.03941406,12.5882812 8.97414063,14.1032812 C9.82792969,14.7753516 11.323125,16.2589844 13,16.2499609 C14.6686328,16.2589844 16.1448828,14.796875 17.0255078,14.1035937 C18.9601953,12.5886328 20.2298828,11.5879297 21.125,10.8749219 L21.125,18.125 L4.875,18.125 Z" id="icon/envelope"></path>
                            </g>
                        </g>
                        <text id="button/text" font-family="Roboto-Bold, Roboto" font-size="16" font-weight="bold">
                            <tspan x="0" y="18" fill="#FFFFFF">Send my an e-mail</tspan>
                        </text>
                    </g>
                </g>
            </g>
            <g id="header/button" transform="translate(805.000000, 20.000000)">
                <mask id="mask-4" fill="white">
                    <use xlink:href="#path-3"></use>
                </mask>
                <rect stroke="#000000" x="0.5" y="0.5" width="238" height="49" rx="5"></rect>
                <g id="button/content" mask="url(#mask-4)">
                    <g transform="translate(40.000000, 13.000000)">
                        <g id="Group" stroke-width="1" fill-rule="evenodd" transform="translate(135.000000, 0.000000)">
                            <g id="button/icon" fill="#000000">
                                <path d="M11.4375,3 L14.5625,3 C15.0820312,3 15.5,3.41796875 15.5,3.9375 L15.5,10.5 L18.9257812,10.5 C19.6210937,10.5 19.96875,11.3398438 19.4765625,11.8320312 L13.5351562,17.7773438 C13.2421875,18.0703125 12.7617187,18.0703125 12.46875,17.7773438 L6.51953125,11.8320312 C6.02734375,11.3398438 6.375,10.5 7.0703125,10.5 L10.5,10.5 L10.5,3.9375 C10.5,3.41796875 10.9179687,3 11.4375,3 Z M23,17.6875 L23,22.0625 C23,22.5820312 22.5820312,23 22.0625,23 L3.9375,23 C3.41796875,23 3,22.5820312 3,22.0625 L3,17.6875 C3,17.1679688 3.41796875,16.75 3.9375,16.75 L9.66796875,16.75 L11.5820312,18.6640625 C12.3671875,19.4492188 13.6328125,19.4492188 14.4179687,18.6640625 L16.3320312,16.75 L22.0625,16.75 C22.5820312,16.75 23,17.1679688 23,17.6875 Z M18.15625,21.125 C18.15625,20.6953125 17.8046875,20.34375 17.375,20.34375 C16.9453125,20.34375 16.59375,20.6953125 16.59375,21.125 C16.59375,21.5546875 16.9453125,21.90625 17.375,21.90625 C17.8046875,21.90625 18.15625,21.5546875 18.15625,21.125 Z M20.65625,21.125 C20.65625,20.6953125 20.3046875,20.34375 19.875,20.34375 C19.4453125,20.34375 19.09375,20.6953125 19.09375,21.125 C19.09375,21.5546875 19.4453125,21.90625 19.875,21.90625 C20.3046875,21.90625 20.65625,21.5546875 20.65625,21.125 Z" id="icon/download"></path>
                            </g>
                        </g>
                        <text id="button/text" font-family="Roboto-Bold, Roboto" font-size="16" font-weight="bold">
                            <tspan x="0" y="18" fill="#000000">Download my CV</tspan>
                        </text>
                    </g>
                </g>
            </g>
            <g id="header/navigation" transform="translate(201.000000, 36.000000)" fill="#000000" font-family="Roboto-Bold, Roboto" font-size="16" font-weight="bold">
                <text id="navigation/experience">
                    <tspan x="147" y="15">Experience</tspan>
                </text>
                <text id="navigation/skills">
                    <tspan x="75" y="15">Skills</tspan>
                </text>
                <text id="navigation/about">
                    <tspan x="0" y="15">About</tspan>
                </text>
            </g>
            <g id="header/logo" transform="translate(130.000000, 25.000000)">
                <circle id="logo/shape" fill="#000000" cx="20.5" cy="20.5" r="20.5"></circle>
                <text id="logo/text" font-family="Roboto-Bold, Roboto" font-size="11" font-weight="bold" fill="#FFFFFF">
                    <tspan x="13.9741211" y="25.2424242">LP</tspan>
                </text>
            </g>
        </g>
    </g>
</svg>