<?xml version="1.0" encoding="UTF-8"?>
<svg width="414px" height="65px" viewBox="0 0 414 65" version="1.1" xmlns="http://www.w3.org/2000/svg" xmlns:xlink="http://www.w3.org/1999/xlink">
    <title>organism/header</title>
    <defs>
        <rect id="path-1" x="0" y="0" width="414" height="60"></rect>
        <filter x="-31.4%" y="-183.3%" width="162.8%" height="533.3%" filterUnits="objectBoundingBox" id="filter-2">
            <feOffset dx="0" dy="20" in="SourceAlpha" result="shadowOffsetOuter1"></feOffset>
            <feGaussianBlur stdDeviation="40" in="shadowOffsetOuter1" result="shadowBlurOuter1"></feGaussianBlur>
            <feColorMatrix values="0 0 0 0 0   0 0 0 0 0   0 0 0 0 0  0 0 0 0.07 0" type="matrix" in="shadowBlurOuter1"></feColorMatrix>
        </filter>
        <rect id="path-3" x="0" y="0" width="140" height="30" rx="5"></rect>
    </defs>
    <g id="Symbols" stroke="none" stroke-width="1" fill="none" fill-rule="evenodd">
        <g id="organism/header">
            <g id="navigation/shape">
                <use fill="black" fill-opacity="1" filter="url(#filter-2)" xlink:href="#path-1"></use>
                <use fill="#FFFFFF" fill-rule="evenodd" xlink:href="#path-1"></use>
            </g>
            <line x1="0" y1="64" x2="190" y2="64" id="navigation/load-bar" stroke="#000000" stroke-width="8" stroke-linecap="square"></line>
            <g id="navigation/burger/open" transform="translate(372.000000, 21.000000)" stroke="#000000" stroke-linecap="square" stroke-width="2">
                <line x1="10" y1="16.5" x2="19" y2="16.5" id="burger/line"></line>
                <line x1="6.59194921e-17" y1="8.5" x2="19" y2="8.5" id="burger/line"></line>
                <line x1="6.59194921e-17" y1="0.5" x2="19" y2="0.5" id="burger/line"></line>
            </g>
            <g id="atom/button/small/icon" transform="translate(210.000000, 16.000000)">
                <mask id="mask-4" fill="white">
                    <use xlink:href="#path-3"></use>
                </mask>
                <use id="button/mask" fill="#000000" xlink:href="#path-3"></use>
                <g id="button/content" mask="url(#mask-4)">
                    <g transform="translate(12.000000, 5.000000)">
                        <g id="Group" stroke-width="1" fill-rule="evenodd" transform="translate(96.000000, 0.000000)">
                            <g id="atom/icon/envelope" fill="#FFFFFF">
                                <path d="M16.9,4 L3.9,4 C3.0715625,4 2.4,4.6715625 2.4,5.5 L2.4,14.5 C2.4,15.3284375 3.0715625,16 3.9,16 L16.9,16 C17.7284375,16 18.4,15.3284375 18.4,14.5 L18.4,5.5 C18.4,4.6715625 17.7284375,4 16.9,4 Z M16.9,5.5 L16.9,6.77515625 C16.1993125,7.34575 15.08225,8.233 12.6941563,10.1029688 C12.167875,10.5169375 11.125375,11.5114688 10.4,11.499875 C9.67475,11.5115938 8.63190625,10.5167813 8.10584375,10.1029688 C5.718125,8.23328125 4.60078125,7.34584375 3.9,6.77515625 L3.9,5.5 L16.9,5.5 Z M3.9,14.5 L3.9,8.6999375 C4.6160625,9.27028125 5.63153125,10.070625 7.1793125,11.282625 C7.86234375,11.8202813 9.0585,13.0071875 10.4,12.9999688 C11.7349063,13.0071875 12.9159063,11.8375 13.6204063,11.282875 C15.1681563,10.0709063 16.1839063,9.27034375 16.9,8.6999375 L16.9,14.5 L3.9,14.5 Z" id="icon/envelope"></path>
                            </g>
                        </g>
                        <text id="button/text" font-family="Roboto-Bold, Roboto" font-size="16" font-weight="bold">
                            <tspan x="6.65234375" y="16" fill="#FFFFFF">Contact me</tspan>
                        </text>
                    </g>
                </g>
            </g>
            <g id="Group" transform="translate(22.000000, 13.000000)">
                <circle id="logo/shape" fill="#000000" cx="16.5" cy="16.5" r="16.5"></circle>
                <text id="logo/text" font-family="Roboto-Bold, Roboto" font-size="11" font-weight="bold" fill="#FFFFFF">
                    <tspan x="9.97412109" y="21">LP</tspan>
                </text>
            </g>
        </g>
    </g>
</svg>